<svg width="51" height="50" viewBox="0 0 51 50" fill="none" xmlns="http://www.w3.org/2000/svg">
<g clip-path="url(#clip0_7207_56)">
<g filter="url(#filter0_d_7207_56)">
<path d="M0.683594 24.7129C0.683594 10.9058 11.8765 -0.287109 25.6836 -0.287109V-0.287109C39.4907 -0.287109 50.6836 10.9058 50.6836 24.7129V47.7129C50.6836 48.8175 49.7882 49.7129 48.6836 49.7129H25.6836C11.8765 49.7129 0.683594 38.52 0.683594 24.7129V24.7129Z" fill="#0080FF"/>
</g>
<g clip-path="url(#clip1_7207_56)">
<path d="M30.2162 28.3685C31.9119 28.3685 33.2863 29.7429 33.2863 31.4387C33.2863 33.1344 31.9119 34.5089 30.2162 34.5089C28.5204 34.5089 27.146 33.1344 27.146 31.4387C27.146 29.7429 28.5204 28.3685 30.2162 28.3685ZM19.9822 24.2749C22.2439 24.2749 24.0758 26.1068 24.0758 28.3685C24.0758 30.6302 22.2439 32.4621 19.9822 32.4621C17.7205 32.4621 15.8887 30.6302 15.8887 28.3685C15.8887 26.1068 17.7205 24.2749 19.9822 24.2749ZM28.6811 14.041C31.7901 14.041 34.3097 16.5606 34.3097 19.6697C34.3097 22.7787 31.7901 25.2983 28.6811 25.2983C25.572 25.2983 23.0524 22.7787 23.0524 19.6697C23.0524 16.5606 25.572 14.041 28.6811 14.041Z" fill="white"/>
</g>
</g>
<defs>
<filter id="filter0_d_7207_56" x="-9.31641" y="-4.28711" width="70" height="70" filterUnits="userSpaceOnUse" color-interpolation-filters="sRGB">
<feFlood flood-opacity="0" result="BackgroundImageFix"/>
<feColorMatrix in="SourceAlpha" type="matrix" values="0 0 0 0 0 0 0 0 0 0 0 0 0 0 0 0 0 0 127 0" result="hardAlpha"/>
<feOffset dy="6"/>
<feGaussianBlur stdDeviation="5"/>
<feComposite in2="hardAlpha" operator="out"/>
<feColorMatrix type="matrix" values="0 0 0 0 0 0 0 0 0 0 0 0 0 0 0 0 0 0 0.07 0"/>
<feBlend mode="normal" in2="BackgroundImageFix" result="effect1_dropShadow_7207_56"/>
<feBlend mode="normal" in="SourceGraphic" in2="effect1_dropShadow_7207_56" result="shape"/>
</filter>
<clipPath id="clip0_7207_56">
<rect width="50" height="50" fill="white" transform="translate(0.683594)"/>
</clipPath>
<clipPath id="clip1_7207_56">
<rect width="24.5614" height="24.5614" fill="white" transform="translate(13.8418 11.9941)"/>
</clipPath>
</defs>
</svg>
