<svg width="62" height="62" viewBox="0 0 62 62" fill="none" xmlns="http://www.w3.org/2000/svg">
<rect opacity="0.05" x="0.908203" y="0.236328" width="61.0909" height="61.0909" rx="15" fill="#502FF5"/>
<path fill-rule="evenodd" clip-rule="evenodd" d="M31.7428 38.131C29.9934 39.6406 27.7242 40.5519 25.2446 40.5519C19.7118 40.5519 15.2266 36.0146 15.2266 30.4176C15.2266 24.8205 19.7118 20.2832 25.2446 20.2832C27.7242 20.2832 29.9934 21.1945 31.7428 22.7041C33.4922 21.1945 35.7614 20.2832 38.241 20.2832C43.7738 20.2832 48.259 24.8205 48.259 30.4176C48.259 36.0146 43.7738 40.5519 38.241 40.5519C35.7614 40.5519 33.4922 39.6406 31.7428 38.131Z" fill="#ED0006"/>
<path fill-rule="evenodd" clip-rule="evenodd" d="M31.7441 38.131C33.8982 36.2721 35.264 33.5062 35.264 30.4176C35.264 27.3289 33.8982 24.563 31.7441 22.7041C33.4935 21.1945 35.7627 20.2832 38.2423 20.2832C43.7751 20.2832 48.2604 24.8205 48.2604 30.4176C48.2604 36.0146 43.7751 40.5519 38.2423 40.5519C35.7627 40.5519 33.4935 39.6406 31.7441 38.131Z" fill="#F9A000"/>
<path fill-rule="evenodd" clip-rule="evenodd" d="M31.7425 38.1299C33.8966 36.2711 35.2624 33.5052 35.2624 30.4165C35.2624 27.3279 33.8966 24.562 31.7425 22.7031C29.5885 24.562 28.2227 27.3279 28.2227 30.4165C28.2227 33.5052 29.5885 36.2711 31.7425 38.1299Z" fill="#FF5E00"/>
</svg>
