<svg width="62" height="62" viewBox="0 0 62 62" fill="none" xmlns="http://www.w3.org/2000/svg">
<rect opacity="0.05" x="0.455078" y="0.236328" width="61.0909" height="61.0909" rx="15" fill="#502FF5"/>
<path fill-rule="evenodd" clip-rule="evenodd" d="M30.4001 35.0128V30.2005H32.9005C33.925 30.2005 34.7898 29.8594 35.4948 29.1869L35.664 29.0163C36.9518 27.6238 36.8672 25.4544 35.4948 24.1661C34.8086 23.484 33.8686 23.1146 32.9005 23.1335H28.8867V35.0128H30.4001ZM30.3996 28.7418V24.5926H32.938C33.4833 24.5926 34.0004 24.801 34.3858 25.1799C35.2037 25.9757 35.2225 27.3019 34.4328 28.1261C34.0474 28.5334 33.5021 28.7608 32.938 28.7418H30.3996ZM42.7228 27.5209C42.0742 26.9241 41.1906 26.6209 40.0721 26.6209C38.6339 26.6209 37.5529 27.1514 36.8385 28.2029L38.1733 29.046C38.6621 28.3261 39.3295 27.9661 40.1755 27.9661C40.7113 27.9661 41.2282 28.165 41.6324 28.525C42.0272 28.8661 42.2528 29.3587 42.2528 29.8797V30.2302C41.67 29.9081 40.9369 29.7376 40.0345 29.7376C38.9817 29.7376 38.1357 29.9839 37.5059 30.486C36.8761 30.988 36.5565 31.6512 36.5565 32.4943C36.5377 33.2616 36.8667 33.991 37.4495 34.4836C38.0417 35.0141 38.7937 35.2794 39.6773 35.2794C40.7207 35.2794 41.5478 34.8152 42.1776 33.8868H42.2434V35.0141H43.691V30.0028C43.691 28.9513 43.3714 28.1177 42.7228 27.5209ZM38.6154 33.5172C38.3052 33.2898 38.1171 32.9204 38.1171 32.5225C38.1171 32.0773 38.324 31.7078 38.7282 31.4141C39.1419 31.1205 39.659 30.9689 40.2701 30.9689C41.1162 30.9594 41.7743 31.1489 42.2443 31.5278C42.2443 32.172 41.9905 32.7309 41.4922 33.2046C41.041 33.6593 40.4299 33.9151 39.7906 33.9151C39.3675 33.9245 38.9539 33.7824 38.6154 33.5172ZM46.9435 38.5857L52.0006 26.8864H50.3557L48.0151 32.7218H47.9869L45.5899 26.8864H43.945L47.2631 34.4933L45.3831 38.5857H46.9435Z" fill="#1D2458"/>
<path d="M25.175 29.1624C25.175 28.6982 25.1374 28.234 25.0622 27.7793H18.6797V30.4034H22.3362C22.1858 31.2465 21.697 32.0043 20.9827 32.478V34.1831H23.1634C24.4418 32.999 25.175 31.2465 25.175 29.1624Z" fill="#4285F4"/>
<path d="M18.6808 35.8317C20.5044 35.8317 22.046 35.2255 23.1646 34.1834L20.9838 32.4782C20.3728 32.8951 19.5926 33.1319 18.6808 33.1319C16.9137 33.1319 15.4191 31.9288 14.8833 30.3184H12.6367V32.0804C13.7835 34.3823 16.1241 35.8317 18.6808 35.8317Z" fill="#34A853"/>
<path d="M14.8833 30.3163C14.6013 29.4732 14.6013 28.5543 14.8833 27.7018V25.9492H12.6364C11.6681 27.8723 11.6681 30.1458 12.6364 32.0689L14.8833 30.3163Z" fill="#FBBC04"/>
<path d="M18.6808 24.8897C19.649 24.8708 20.5796 25.2402 21.2752 25.9128L23.2116 23.9613C21.9802 22.8056 20.3634 22.1709 18.6808 22.1899C16.1241 22.1899 13.7835 23.6487 12.6367 25.9507L14.8833 27.7127C15.4191 26.0928 16.9137 24.8897 18.6808 24.8897Z" fill="#EA4335"/>
</svg>
