<svg width="62" height="62" viewBox="0 0 62 62" fill="none" xmlns="http://www.w3.org/2000/svg">
<rect opacity="0.05" y="0.236328" width="61.0909" height="61.0909" rx="15" fill="#502FF5"/>
<path fill-rule="evenodd" clip-rule="evenodd" d="M20.6743 36.4088H17.483L15.0899 27.5325C14.9763 27.1242 14.7351 26.7632 14.3803 26.5931C13.495 26.1656 12.5194 25.8253 11.4551 25.6537V25.312H16.5961C17.3056 25.312 17.8378 25.8253 17.9264 26.4215L19.1681 32.8242L22.3579 25.312H25.4606L20.6743 36.4088ZM27.2342 36.4088H24.2203L26.7021 25.312H29.716L27.2342 36.4088ZM33.6155 28.3848C33.7042 27.7871 34.2364 27.4454 34.8572 27.4454C35.8328 27.3596 36.8956 27.5312 37.7825 27.9572L38.3146 25.568C37.4277 25.2263 36.4521 25.0547 35.5668 25.0547C32.6415 25.0547 30.5129 26.5918 30.5129 28.725C30.5129 30.3479 32.0207 31.2 33.085 31.7134C34.2364 32.2252 34.6798 32.567 34.5912 33.0788C34.5912 33.8466 33.7042 34.1884 32.8189 34.1884C31.7546 34.1884 30.6903 33.9324 29.7162 33.5049L29.1841 35.8956C30.2484 36.3216 31.3998 36.4932 32.4641 36.4932C35.7441 36.5776 37.7825 35.042 37.7825 32.7371C37.7825 29.8346 33.6155 29.6644 33.6155 28.3848ZM48.3307 36.4088L45.9375 25.312H43.367C42.8349 25.312 42.3027 25.6537 42.1254 26.1656L37.6939 36.4088H40.7965L41.4158 34.7874H45.228L45.5828 36.4088H48.3307ZM43.8105 28.2987L44.6958 32.4809H42.214L43.8105 28.2987Z" fill="#1C37AD"/>
</svg>
