<svg width="66" height="76" viewBox="0 0 66 76" fill="none" xmlns="http://www.w3.org/2000/svg">
<mask id="path-1-outside-1_7079_46" maskUnits="userSpaceOnUse" x="-1.39862" y="0.501979" width="66.7213" height="75.9375" fill="black">
<rect fill="white" x="-1.39862" y="0.501979" width="66.7213" height="75.9375"/>
<path d="M13.5174 68.1015C10.2731 64.509 9.09946 59.134 10.5504 54.5179C11.0049 53.0703 11.7118 51.7086 12.6144 50.4881C14.5913 47.8133 17.5083 45.8185 20.7436 45.0664C22.3174 44.6985 24.0236 44.6546 25.3173 45.4376C25.3938 45.4843 25.4687 45.5344 25.5417 45.5884C26.1041 46.0025 26.5395 46.6415 26.7264 47.307C26.9139 47.9755 26.8591 48.6492 26.4954 49.1933L26.4367 49.2764C26.1302 49.6927 25.6572 50.01 25.1386 50.2392C24.1625 50.6716 23.1579 50.7613 22.1717 50.586C21.1865 50.4104 20.2213 49.9648 19.3537 49.3232C17.3714 47.8618 15.9238 45.378 15.8707 42.9074C15.8002 39.9298 17.0386 37.1515 18.8704 34.674C19.9395 33.2283 21.2081 31.8893 22.523 30.6824C33.412 20.6847 48.9692 15.9719 63.5799 18.2446C63.7757 18.2745 63.9587 18.1409 63.9888 17.9459C64.0193 17.7502 63.8852 17.5674 63.6898 17.5369C48.8542 15.2331 33.097 20.0065 22.0385 30.155C20.6984 31.385 19.399 32.7548 18.2944 34.248C16.4054 36.8026 15.0806 39.7307 15.1545 42.9238C15.2236 45.6608 16.7791 48.3055 18.928 49.899C19.8716 50.5968 20.9342 51.0922 22.0461 51.291C23.1568 51.4899 24.3181 51.3878 25.4291 50.894C26.0188 50.6318 26.6004 50.2586 27.0127 49.7023L27.0911 49.5911C27.5929 48.8401 27.649 47.9331 27.4158 47.1123C27.1817 46.2891 26.6651 45.5295 25.9674 45.0126C25.8767 44.9456 25.7829 44.8824 25.6862 44.8243L25.686 44.8241C24.1334 43.896 22.2421 43.9846 20.581 44.3691C17.1662 45.1648 14.1144 47.2558 12.0384 50.0621C11.0907 51.3437 10.3464 52.7757 9.86731 54.3032C8.34228 59.1761 9.5672 64.7859 12.9854 68.5809C13.1179 68.7278 13.3445 68.7396 13.491 68.6074C13.6381 68.4749 13.6497 68.2483 13.5174 68.1015Z"/>
</mask>
<path d="M13.5174 68.1015C10.2731 64.509 9.09946 59.134 10.5504 54.5179C11.0049 53.0703 11.7118 51.7086 12.6144 50.4881C14.5913 47.8133 17.5083 45.8185 20.7436 45.0664C22.3174 44.6985 24.0236 44.6546 25.3173 45.4376C25.3938 45.4843 25.4687 45.5344 25.5417 45.5884C26.1041 46.0025 26.5395 46.6415 26.7264 47.307C26.9139 47.9755 26.8591 48.6492 26.4954 49.1933L26.4367 49.2764C26.1302 49.6927 25.6572 50.01 25.1386 50.2392C24.1625 50.6716 23.1579 50.7613 22.1717 50.586C21.1865 50.4104 20.2213 49.9648 19.3537 49.3232C17.3714 47.8618 15.9238 45.378 15.8707 42.9074C15.8002 39.9298 17.0386 37.1515 18.8704 34.674C19.9395 33.2283 21.2081 31.8893 22.523 30.6824C33.412 20.6847 48.9692 15.9719 63.5799 18.2446C63.7757 18.2745 63.9587 18.1409 63.9888 17.9459C64.0193 17.7502 63.8852 17.5674 63.6898 17.5369C48.8542 15.2331 33.097 20.0065 22.0385 30.155C20.6984 31.385 19.399 32.7548 18.2944 34.248C16.4054 36.8026 15.0806 39.7307 15.1545 42.9238C15.2236 45.6608 16.7791 48.3055 18.928 49.899C19.8716 50.5968 20.9342 51.0922 22.0461 51.291C23.1568 51.4899 24.3181 51.3878 25.4291 50.894C26.0188 50.6318 26.6004 50.2586 27.0127 49.7023L27.0911 49.5911C27.5929 48.8401 27.649 47.9331 27.4158 47.1123C27.1817 46.2891 26.6651 45.5295 25.9674 45.0126C25.8767 44.9456 25.7829 44.8824 25.6862 44.8243L25.686 44.8241C24.1334 43.896 22.2421 43.9846 20.581 44.3691C17.1662 45.1648 14.1144 47.2558 12.0384 50.0621C11.0907 51.3437 10.3464 52.7757 9.86731 54.3032C8.34228 59.1761 9.5672 64.7859 12.9854 68.5809C13.1179 68.7278 13.3445 68.7396 13.491 68.6074C13.6381 68.4749 13.6497 68.2483 13.5174 68.1015Z" fill="#0F0840"/>
<path d="M10.5504 54.5179L11.2182 54.7276L11.2181 54.7278L10.5504 54.5179ZM12.6144 50.4881L13.1774 50.9041L13.1772 50.9043L12.6144 50.4881ZM20.7436 45.0664L20.903 45.748L20.9022 45.7482L20.7436 45.0664ZM25.3173 45.4376L25.6797 44.8387L25.6824 44.8404L25.3173 45.4376ZM25.5417 45.5884L25.1266 46.152L25.1255 46.1512L25.5417 45.5884ZM26.7264 47.307L27.4004 47.1177L27.4004 47.1179L26.7264 47.307ZM26.4954 49.1933L27.0773 49.5823L27.0723 49.5898L27.0671 49.5971L26.4954 49.1933ZM26.4367 49.2764L27.0086 49.6803L27.0004 49.6913L26.4367 49.2764ZM25.1386 50.2392L24.8551 49.5992L24.8556 49.599L25.1386 50.2392ZM22.1717 50.586L22.0492 51.2752L22.0489 51.2751L22.1717 50.586ZM19.3537 49.3232L19.7691 48.7598L19.7699 48.7604L19.3537 49.3232ZM15.8707 42.9074L16.5705 42.8909L16.5705 42.8924L15.8707 42.9074ZM18.8704 34.674L18.3075 34.2578L18.3076 34.2578L18.8704 34.674ZM22.523 30.6824L22.9965 31.1981L22.9964 31.1982L22.523 30.6824ZM63.5799 18.2446L63.4742 18.9366L63.4723 18.9363L63.5799 18.2446ZM63.9888 17.9459L63.297 17.8391L63.2971 17.8382L63.9888 17.9459ZM63.6898 17.5369L63.7972 16.8452L63.7976 16.8453L63.6898 17.5369ZM22.0385 30.155L21.5652 29.6393L21.5652 29.6392L22.0385 30.155ZM18.2944 34.248L17.7316 33.8318L17.7317 33.8318L18.2944 34.248ZM15.1545 42.9238L14.4548 42.9414L14.4547 42.94L15.1545 42.9238ZM18.928 49.899L18.5118 50.4618L18.511 50.4612L18.928 49.899ZM22.0461 51.291L22.1693 50.602L22.1694 50.602L22.0461 51.291ZM25.4291 50.894L25.7135 51.5336L25.7134 51.5336L25.4291 50.894ZM27.0127 49.7023L27.5848 50.1057L27.58 50.1125L27.575 50.1192L27.0127 49.7023ZM27.0911 49.5911L27.6731 49.98L27.6683 49.9873L27.6632 49.9945L27.0911 49.5911ZM27.4158 47.1123L28.0891 46.9208L28.0892 46.921L27.4158 47.1123ZM25.9674 45.0126L26.3836 44.4498L26.3841 44.4501L25.9674 45.0126ZM25.6862 44.8243L25.3255 45.4242L25.2969 45.407L25.27 45.3871L25.6862 44.8243ZM25.686 44.8241L26.0452 44.2233L26.0746 44.2409L26.1022 44.2613L25.686 44.8241ZM20.581 44.3691L20.4222 43.6873L20.4232 43.6871L20.581 44.3691ZM12.0384 50.0621L11.4756 49.6459L11.4757 49.6458L12.0384 50.0621ZM9.86731 54.3032L9.19926 54.0941L9.19939 54.0937L9.86731 54.3032ZM12.9854 68.5809L12.4655 69.0496L12.4653 69.0493L12.9854 68.5809ZM13.491 68.6074L13.022 68.0877L13.0224 68.0874L13.491 68.6074ZM12.9978 68.5706C9.58736 64.7941 8.35728 59.1608 9.88256 54.3081L11.2181 54.7278C9.84164 59.1072 10.9588 64.2239 14.0369 67.6323L12.9978 68.5706ZM9.8825 54.3083C10.3615 52.7826 11.1052 51.3516 12.0516 50.0718L13.1772 50.9043C12.3185 52.0656 11.6483 53.358 11.2182 54.7276L9.8825 54.3083ZM12.0515 50.072C14.1214 47.2714 17.1783 45.1766 20.5851 44.3846L20.9022 45.7482C17.8384 46.4605 15.0613 48.3551 13.1774 50.9041L12.0515 50.072ZM20.5843 44.3848C22.2198 44.0024 24.1507 43.9133 25.6797 44.8387L24.9548 46.0364C23.8964 45.3958 22.4151 45.3945 20.903 45.748L20.5843 44.3848ZM25.6824 44.8404C25.775 44.897 25.8672 44.9584 25.9579 45.0255L25.1255 46.1512C25.0703 46.1104 25.0125 46.0717 24.9521 46.0348L25.6824 44.8404ZM25.9567 45.0247C26.647 45.533 27.172 46.3048 27.4004 47.1177L26.0525 47.4963C25.907 46.9782 25.5612 46.472 25.1266 46.152L25.9567 45.0247ZM27.4004 47.1179C27.6295 47.9348 27.58 48.8304 27.0773 49.5823L25.9134 48.8043C26.1382 48.468 26.1983 48.0162 26.0524 47.496L27.4004 47.1179ZM27.0671 49.5971L27.0085 49.6802L25.8649 48.8725L25.9236 48.7895L27.0671 49.5971ZM27.0004 49.6913C26.5955 50.2414 26.0031 50.6224 25.4216 50.8794L24.8556 49.599C25.3113 49.3975 25.6649 49.144 25.873 48.8614L27.0004 49.6913ZM25.4221 50.8792C24.3089 51.3723 23.1618 51.473 22.0492 51.2752L22.2942 49.8968C23.154 50.0496 24.0161 49.9708 24.8551 49.5992L25.4221 50.8792ZM22.0489 51.2751C20.9414 51.0778 19.8777 50.5813 18.9375 49.8861L19.7699 48.7604C20.5648 49.3482 21.4315 49.7431 22.2945 49.8968L22.0489 51.2751ZM18.9383 49.8867C16.8049 48.3138 15.2292 45.6377 15.1708 42.9225L16.5705 42.8924C16.6184 45.1182 17.9379 47.4098 19.7691 48.7598L18.9383 49.8867ZM15.1709 42.924C15.0955 39.7362 16.4222 36.8078 18.3075 34.2578L19.4333 35.0901C17.6551 37.4952 16.505 40.1234 16.5705 42.8909L15.1709 42.924ZM18.3076 34.2578C19.41 32.767 20.7114 31.395 22.0497 30.1667L22.9964 31.1982C21.7048 32.3836 20.4689 33.6896 19.4332 35.0902L18.3076 34.2578ZM22.0496 30.1668C33.0954 20.025 48.8665 15.2475 63.6875 17.553L63.4723 18.9363C49.0719 16.6963 33.7285 21.3443 22.9965 31.1981L22.0496 30.1668ZM63.6856 17.5527C63.5025 17.5247 63.3262 17.6497 63.297 17.8391L64.6806 18.0526C64.5912 18.6322 64.0489 19.0244 63.4742 18.9366L63.6856 17.5527ZM63.2971 17.8382C63.2679 18.0256 63.3965 18.1996 63.582 18.2286L63.7976 16.8453C64.3738 16.9351 64.7706 17.4749 64.6805 18.0536L63.2971 17.8382ZM63.5824 18.2286C48.957 15.9575 33.4135 20.6661 22.5118 30.6707L21.5652 29.6392C32.7805 19.3468 48.7515 14.5088 63.7972 16.8452L63.5824 18.2286ZM22.5119 30.6707C21.1951 31.8793 19.9285 33.2161 18.8572 34.6643L17.7317 33.8318C18.8696 32.2935 20.2017 30.8908 21.5652 29.6393L22.5119 30.6707ZM18.8572 34.6642C17.022 37.146 15.7853 39.9242 15.8543 42.9076L14.4547 42.94C14.3759 39.5372 15.7888 36.4591 17.7316 33.8318L18.8572 34.6642ZM15.8543 42.9061C15.9172 45.4006 17.3461 47.8544 19.3449 49.3367L18.511 50.4612C16.2122 48.7565 14.5299 45.921 14.4548 42.9414L15.8543 42.9061ZM19.3442 49.3361C20.215 49.9801 21.1792 50.4249 22.1693 50.602L21.9229 51.9801C20.6893 51.7595 19.5283 51.2135 18.5118 50.4618L19.3442 49.3361ZM22.1694 50.602C23.1533 50.7781 24.1715 50.6869 25.1448 50.2543L25.7134 51.5336C24.4648 52.0886 23.1603 52.2017 21.9227 51.9801L22.1694 50.602ZM25.1447 50.2543C25.6721 50.0198 26.1358 49.7098 26.4503 49.2855L27.575 50.1192C27.0649 50.8074 26.3654 51.2437 25.7135 51.5336L25.1447 50.2543ZM26.4406 49.2989L26.519 49.1877L27.6632 49.9945L27.5848 50.1057L26.4406 49.2989ZM26.5091 49.2022C26.8729 48.6578 26.9325 47.9727 26.7425 47.3036L28.0892 46.921C28.3654 47.8935 28.313 49.0224 27.6731 49.98L26.5091 49.2022ZM26.7425 47.3038C26.5498 46.6262 26.1219 45.9982 25.5507 45.5751L26.3841 44.4501C27.2084 45.0607 27.8135 45.9519 28.0891 46.9208L26.7425 47.3038ZM25.5512 45.5754C25.4771 45.5207 25.4018 45.47 25.3255 45.4242L26.0469 44.2244C26.164 44.2948 26.2764 44.3705 26.3836 44.4498L25.5512 45.5754ZM25.27 45.3871L25.2698 45.3869L26.1022 44.2613L26.1024 44.2615L25.27 45.3871ZM25.3268 45.4249C24.0073 44.6361 22.3378 44.681 20.7389 45.0511L20.4232 43.6871C22.1465 43.2883 24.2596 43.1558 26.0452 44.2233L25.3268 45.4249ZM20.7399 45.0508C17.4963 45.8066 14.5842 47.7977 12.6012 50.4784L11.4757 49.6458C13.6446 46.7138 16.8361 44.523 20.4222 43.6873L20.7399 45.0508ZM12.6013 50.4783C11.6973 51.7007 10.9898 53.0633 10.5352 54.5127L9.19939 54.0937C9.70298 52.488 10.4841 50.9867 11.4756 49.6459L12.6013 50.4783ZM10.5354 54.5122C9.08424 59.149 10.2529 64.5012 13.5055 68.1124L12.4653 69.0493C8.88153 65.0706 7.60032 59.2032 9.19926 54.0941L10.5354 54.5122ZM13.5053 68.1121C13.3795 67.9726 13.1634 67.9601 13.022 68.0877L13.9599 69.1271C13.5256 69.519 12.8563 69.483 12.4655 69.0496L13.5053 68.1121ZM13.0224 68.0874C12.8821 68.2138 12.871 68.4299 12.9974 68.5701L14.0373 67.6329C14.4284 68.0668 14.394 68.736 13.9595 69.1275L13.0224 68.0874Z" fill="#0F0840" mask="url(#path-1-outside-1_7079_46)"/>
<mask id="path-3-outside-2_7079_46" maskUnits="userSpaceOnUse" x="45.2459" y="7.73222" width="21.3644" height="21.9927" fill="black">
<rect fill="white" x="45.2459" y="7.73222" width="21.3644" height="21.9927"/>
<path d="M55.524 9.68717C56.2668 10.4556 58.2328 12.5702 60.0081 14.4886C60.8961 15.448 61.7371 16.3594 62.356 17.0308C62.9756 17.7019 63.3717 18.1319 63.3725 18.1333L63.6359 17.8909L63.3479 17.6779L55.9761 27.6467C55.8586 27.8056 55.8921 28.0299 56.0512 28.1476C56.2103 28.2652 56.4346 28.2316 56.5521 28.0727L63.9239 18.1039C64.0261 17.9657 64.016 17.7747 63.8994 17.6485C63.8978 17.6464 57.5464 10.7481 56.0385 9.18956C55.9013 9.0471 55.6745 9.04322 55.5321 9.1811C55.3902 9.31841 55.3864 9.54532 55.524 9.68717Z"/>
</mask>
<path d="M55.524 9.68717C56.2668 10.4556 58.2328 12.5702 60.0081 14.4886C60.8961 15.448 61.7371 16.3594 62.356 17.0308C62.9756 17.7019 63.3717 18.1319 63.3725 18.1333L63.6359 17.8909L63.3479 17.6779L55.9761 27.6467C55.8586 27.8056 55.8921 28.0299 56.0512 28.1476C56.2103 28.2652 56.4346 28.2316 56.5521 28.0727L63.9239 18.1039C64.0261 17.9657 64.016 17.7747 63.8994 17.6485C63.8978 17.6464 57.5464 10.7481 56.0385 9.18956C55.9013 9.0471 55.6745 9.04322 55.5321 9.1811C55.3902 9.31841 55.3864 9.54532 55.524 9.68717Z" fill="#0F0840"/>
<path d="M60.0081 14.4886L59.4944 14.964L59.4943 14.964L60.0081 14.4886ZM62.356 17.0308L61.8417 17.5057L61.8413 17.5053L62.356 17.0308ZM63.3725 18.1333L63.8465 18.6484L63.1671 19.2735L62.7486 18.4507L63.3725 18.1333ZM63.6359 17.8909L64.0521 17.3281L64.7337 17.8321L64.1099 18.406L63.6359 17.8909ZM63.3479 17.6779L62.7851 17.2617L63.2013 16.6989L63.7641 17.1151L63.3479 17.6779ZM63.8994 17.6485L63.385 18.1233L63.3638 18.1002L63.3446 18.0754L63.8994 17.6485ZM56.0385 9.18956L55.5354 9.67629L55.5344 9.67523L56.0385 9.18956ZM55.5321 9.1811L56.0192 9.68386L56.0189 9.68415L55.5321 9.1811ZM56.0273 9.20063C56.7767 9.97588 58.749 12.0974 60.5219 14.0131L59.4943 14.964C57.7166 13.043 55.7569 10.9352 55.0207 10.1737L56.0273 9.20063ZM60.5218 14.0131C61.4102 14.973 62.2516 15.8847 62.8707 16.5564L61.8413 17.5053C61.2227 16.8341 60.382 15.9231 59.4944 14.964L60.5218 14.0131ZM62.8703 16.5559C63.1802 16.8916 63.4343 17.167 63.6111 17.3588C63.6994 17.4546 63.7685 17.5297 63.8157 17.5809C63.8392 17.6065 63.8574 17.6264 63.8699 17.64C63.8761 17.6467 63.8812 17.6523 63.885 17.6565C63.8868 17.6584 63.8891 17.6609 63.8912 17.6633C63.892 17.6642 63.8943 17.6667 63.897 17.6698C63.898 17.6709 63.9015 17.6749 63.9058 17.68C63.9076 17.6821 63.9129 17.6883 63.9194 17.6964C63.9229 17.7009 63.9319 17.7126 63.9373 17.7199C63.9469 17.7334 63.9773 17.7809 63.9964 17.8159L62.7486 18.4507C62.7676 18.4857 62.798 18.5333 62.8076 18.5468C62.813 18.554 62.822 18.5657 62.8255 18.5701C62.832 18.5782 62.8372 18.5844 62.8389 18.5865C62.8431 18.5914 62.8465 18.5952 62.8473 18.5961C62.8496 18.5987 62.8512 18.6006 62.8513 18.6006C62.8519 18.6012 62.8518 18.6011 62.8504 18.5997C62.8481 18.5971 62.844 18.5927 62.8381 18.5862C62.8263 18.5734 62.8087 18.5542 62.7853 18.5287C62.7386 18.478 62.6698 18.4033 62.5816 18.3076C62.4052 18.1162 62.1514 17.8411 61.8417 17.5057L62.8703 16.5559ZM62.8985 17.6182L63.1619 17.3758L64.1099 18.406L63.8465 18.6484L62.8985 17.6182ZM63.2197 18.4537L62.9317 18.2408L63.7641 17.1151L64.0521 17.3281L63.2197 18.4537ZM63.9108 18.0941L56.5389 28.0629L55.4133 27.2305L62.7851 17.2617L63.9108 18.0941ZM56.5389 28.0629C56.6514 27.9109 56.6191 27.6969 56.4674 27.5847L55.635 28.7104C55.1652 28.363 55.0659 27.7004 55.4133 27.2305L56.5389 28.0629ZM56.4674 27.5847C56.3158 27.4726 56.1017 27.5044 55.9893 27.6565L57.1149 28.4889C56.7675 28.9587 56.1049 29.0578 55.635 28.7104L56.4674 27.5847ZM55.9893 27.6565L63.3611 17.6877L64.4868 18.5201L57.1149 28.4889L55.9893 27.6565ZM63.3611 17.6877C63.264 17.8189 63.2731 18.002 63.385 18.1233L64.4138 17.1737C64.7588 17.5475 64.7882 18.1125 64.4868 18.5201L63.3611 17.6877ZM63.3446 18.0754C63.3616 18.0965 63.3804 18.1182 63.3816 18.1195C63.382 18.1199 63.3826 18.1206 63.3827 18.1207C63.3829 18.1209 63.3829 18.1209 63.3825 18.1205C63.3819 18.1199 63.3809 18.1188 63.3794 18.1171C63.3764 18.1139 63.3719 18.109 63.3659 18.1024C63.3539 18.0893 63.3359 18.0699 63.3125 18.0444C63.2655 17.9934 63.1966 17.9185 63.1082 17.8226C62.9315 17.6309 62.6775 17.3552 62.368 17.0197C61.7489 16.3485 60.908 15.4376 60.0201 14.4781C58.2409 12.5557 56.2826 10.4485 55.5354 9.67629L56.5416 8.70284C57.3023 9.48909 59.2736 11.6104 61.0476 13.5272C61.9362 14.4874 62.7777 15.3989 63.3971 16.0705C63.7068 16.4062 63.961 16.6821 64.1378 16.874C64.2263 16.97 64.2954 17.045 64.3424 17.0961C64.3659 17.1216 64.3839 17.1412 64.3961 17.1544C64.4022 17.1611 64.4068 17.1661 64.41 17.1696C64.4116 17.1713 64.4129 17.1727 64.4139 17.1738C64.4143 17.1743 64.4149 17.1749 64.4155 17.1755C64.4158 17.1759 64.4166 17.1767 64.4171 17.1772C64.4183 17.1786 64.4373 17.2004 64.4542 17.2216L63.3446 18.0754ZM55.5344 9.67523C55.6663 9.81212 55.8837 9.81512 56.0192 9.68386L55.0451 8.67834C55.4652 8.27132 56.1362 8.28207 56.5426 8.70389L55.5344 9.67523ZM56.0189 9.68415C56.1545 9.5529 56.1588 9.33616 56.0264 9.19972L55.0216 10.1746C54.614 9.75448 54.6259 9.08391 55.0454 8.67806L56.0189 9.68415Z" fill="#0F0840" mask="url(#path-3-outside-2_7079_46)"/>
</svg>
