<svg width="51" height="50" viewBox="0 0 51 50" fill="none" xmlns="http://www.w3.org/2000/svg">
<g clip-path="url(#clip0_7207_70)">
<path d="M25.6836 49.7129C11.8765 49.7129 0.683594 38.52 0.683594 24.7129V24.7129C0.683594 10.9058 11.8765 -0.287109 25.6836 -0.287109H48.6836C49.7882 -0.287109 50.6836 0.608321 50.6836 1.71289V47.7129C50.6836 48.8175 49.7882 49.7129 48.6836 49.7129H25.6836Z" fill="#B81BD1"/>
<g clip-path="url(#clip1_7207_70)">
<path d="M31.1753 27.8643L28.9105 32.6231C28.8677 32.713 28.8036 32.7912 28.7237 32.8509C28.6439 32.9106 28.5508 32.9499 28.4523 32.9655C28.3539 32.9811 28.2531 32.9726 28.1588 32.9405C28.0644 32.9085 27.9792 32.854 27.9106 32.7817L24.2858 28.9552C24.189 28.8531 24.06 28.7873 23.9204 28.769L18.694 28.0853C18.5952 28.0723 18.5011 28.0355 18.4198 27.978C18.3385 27.9205 18.2723 27.8441 18.2271 27.7554C18.1819 27.6666 18.1589 27.5682 18.1602 27.4686C18.1615 27.3691 18.187 27.2713 18.2345 27.1837L20.7541 22.5539C20.8211 22.4301 20.8435 22.287 20.8175 22.1486L19.8525 16.9672C19.8341 16.8691 19.84 16.7681 19.8695 16.6728C19.899 16.5775 19.9513 16.4908 20.0219 16.4202C20.0924 16.3497 20.1791 16.2974 20.2744 16.2679C20.3697 16.2384 20.4708 16.2325 20.5688 16.2508L25.7503 17.2159C25.8886 17.2418 26.0317 17.2194 26.1555 17.1524L30.7854 14.6329C30.873 14.5853 30.9708 14.5599 31.0705 14.5586C31.1702 14.5574 31.2686 14.5805 31.3574 14.6258C31.4461 14.6711 31.5225 14.7374 31.5799 14.8189C31.6374 14.9003 31.6741 14.9945 31.687 15.0934L32.3706 20.3188C32.389 20.4583 32.4547 20.5873 32.5568 20.6842L36.3833 24.309C36.4556 24.3776 36.5101 24.4628 36.5422 24.5571C36.5742 24.6515 36.5828 24.7523 36.5671 24.8507C36.5515 24.9491 36.5122 25.0423 36.4525 25.1221C36.3929 25.2019 36.3147 25.266 36.2247 25.3089L31.4659 27.5736C31.3385 27.6343 31.2359 27.7369 31.1753 27.8643V27.8643ZM31.9909 29.8364L33.438 28.3893L37.7802 32.7305L36.3321 34.1786L31.9909 29.8364V29.8364Z" fill="white"/>
</g>
</g>
<defs>
<clipPath id="clip0_7207_70">
<rect width="50" height="50" fill="white" transform="translate(0.316406)"/>
</clipPath>
<clipPath id="clip1_7207_70">
<path d="M15.5957 11.9941H40.1571V34.5555C40.1571 35.6601 39.2617 36.5555 38.1571 36.5555H17.5957C16.4911 36.5555 15.5957 35.6601 15.5957 34.5555V11.9941Z" fill="white"/>
</clipPath>
</defs>
</svg>
