<svg width="363" height="775" viewBox="0 0 363 775" fill="none" xmlns="http://www.w3.org/2000/svg">
<path fill-rule="evenodd" clip-rule="evenodd" d="M44.8051 0.982422H315.671C340.262 0.982422 360.196 20.9173 360.196 45.5083V730.093C360.196 754.684 340.262 774.619 315.671 774.619H44.8051C20.2142 774.619 0.279297 754.684 0.279297 730.093V45.5083C0.279297 20.9173 20.2142 0.982422 44.8051 0.982422ZM42.9495 46.4355H317.525C333.919 46.4355 347.209 59.7255 347.209 76.1194V721.744C347.209 738.138 333.919 751.428 317.525 751.428H42.9495C26.5556 751.428 13.2656 738.138 13.2656 721.744V76.1194C13.2656 59.7255 26.5556 46.4355 42.9495 46.4355Z" fill="#171718"/>
<path d="M358.424 189.289C360.473 189.289 362.134 190.95 362.134 193V233.815C362.134 235.864 360.473 237.525 358.424 237.525V189.289Z" fill="#272729"/>
<path d="M358.424 285.762C360.473 285.762 362.134 287.423 362.134 289.472V378.524C362.134 380.573 360.473 382.234 358.424 382.234V285.762Z" fill="#1A1A1A"/>
<path d="M194.236 28.8105H162.697C161.672 28.8105 160.842 29.6412 160.842 30.6658C160.842 31.6904 161.672 32.521 162.697 32.521H194.236C195.261 32.521 196.091 31.6904 196.091 30.6658C196.091 29.6412 195.261 28.8105 194.236 28.8105Z" fill="#0F0840"/>
<mask id="mask0_7209_155" style="mask-type:alpha" maskUnits="userSpaceOnUse" x="11" y="46" width="335" height="706">
<path d="M315.754 46.4355H41.178C24.7841 46.4355 11.4941 59.7255 11.4941 76.1194V721.744C11.4941 738.138 24.7841 751.428 41.178 751.428H315.754C332.148 751.428 345.438 738.138 345.438 721.744V76.1194C345.438 59.7255 332.148 46.4355 315.754 46.4355Z" fill="white"/>
</mask>
<g mask="url(#mask0_7209_155)">
<path fill-rule="evenodd" clip-rule="evenodd" d="M2.21875 45.5087C2.21875 22.967 20.4924 4.69336 43.0341 4.69336H313.9C336.442 4.69336 354.715 22.967 354.715 45.5087V730.093C354.715 752.636 336.442 770.909 313.9 770.909H43.0341C20.4924 770.909 2.21875 752.636 2.21875 730.093V45.5087ZM97.7638 39.943C102.375 39.943 106.112 36.2052 106.112 31.5944C106.112 26.9835 102.375 23.2458 97.7638 23.2458C93.1526 23.2458 89.4152 26.9835 89.4152 31.5944C89.4152 36.2052 93.1526 39.943 97.7638 39.943ZM162.697 27.8839C161.16 27.8839 159.914 29.1298 159.914 30.6668C159.914 32.2037 161.16 33.4496 162.697 33.4496H194.236C195.774 33.4496 197.019 32.2037 197.019 30.6668C197.019 29.1298 195.774 27.8839 194.236 27.8839H162.697Z" fill="url(#paint0_linear_7209_155)"/>
</g>
<defs>
<linearGradient id="paint0_linear_7209_155" x1="4.79119" y1="4.69336" x2="4.79119" y2="759.725" gradientUnits="userSpaceOnUse">
<stop stop-color="white" stop-opacity="0.05"/>
<stop offset="1" stop-color="white" stop-opacity="0.1"/>
</linearGradient>
</defs>
</svg>
