<svg width="25" height="20" viewBox="0 0 25 20" fill="none" xmlns="http://www.w3.org/2000/svg">
<path d="M19.3557 19.6115C17.9127 19.6115 16.6269 19.0285 15.4891 17.8546C14.3514 16.6886 13.7871 15.1444 13.7871 13.222C13.7871 11.5912 14.8231 9.09373 16.8859 5.73751C18.9579 2.37342 20.4934 0.695313 21.5017 0.695313C22.066 0.695313 22.3527 0.947421 22.3527 1.44376C22.3527 1.5777 21.7607 2.66493 20.5859 4.71332C19.4019 6.76172 18.8192 8.36892 18.8192 9.51917C18.8192 10.4094 19.4852 11.1421 20.8264 11.7094C22.1584 12.2766 23.0557 12.8675 23.4997 13.482C23.9437 14.0965 24.1657 14.7662 24.1657 15.4753C24.1657 16.7595 23.7217 17.7758 22.8337 18.5085C21.9179 19.2412 20.7709 19.6115 19.3557 19.6115Z" fill="#FFB459"/>
<path d="M6.07441 19.6115C4.6314 19.6115 3.33638 19.0285 2.20787 17.8546C1.07011 16.6886 0.505858 15.1444 0.505858 13.222C0.505858 11.5912 1.54187 9.09373 3.60464 5.73751C5.66741 2.37342 7.21218 0.695313 8.21119 0.695313C8.77544 0.695313 9.06219 0.947421 9.06219 1.44376C9.06219 1.5777 8.4702 2.66493 7.29544 4.71332C6.11142 6.76172 5.52866 8.36892 5.52866 9.51917C5.52866 10.4094 6.19467 11.1421 7.53593 11.7094C8.86795 12.2766 9.76521 12.8675 10.2092 13.482C10.6532 14.0965 10.8752 14.7662 10.8752 15.4753C10.8752 16.7595 10.4312 17.7758 9.5432 18.5085C8.65519 19.2412 7.48968 19.6115 6.07441 19.6115Z" fill="#502FF5"/>
</svg>
