<svg width="129" height="19" viewBox="0 0 129 19" fill="none" xmlns="http://www.w3.org/2000/svg">
<path d="M48.1643 10.2384L43.9633 9.66772L42.0853 6.10926C42.034 6.01184 41.9496 5.93296 41.8454 5.88502C41.5839 5.7644 41.2663 5.86492 41.1355 6.10926L39.2576 9.66772L35.0565 10.2384C34.9407 10.2538 34.8348 10.3049 34.7537 10.3822C34.6557 10.4764 34.6017 10.603 34.6036 10.7344C34.6054 10.8658 34.663 10.991 34.7637 11.0827L37.8032 13.8525L37.0851 17.7636C37.0682 17.8545 37.079 17.9481 37.1162 18.0336C37.1533 18.1192 37.2154 18.1933 37.2953 18.2476C37.3752 18.3018 37.4698 18.3341 37.5684 18.3406C37.6669 18.3472 37.7654 18.3278 37.8528 18.2847L41.6104 16.4382L45.368 18.2847C45.4706 18.3357 45.5897 18.3528 45.7039 18.3342C45.9918 18.2878 46.1854 18.0326 46.1358 17.7636L45.4177 13.8525L48.4572 11.0827C48.5399 11.007 48.5945 10.908 48.611 10.7997C48.6557 10.5291 48.4539 10.2786 48.1643 10.2384Z" fill="#0F0840"/>
<path d="M68.0178 10.2384L63.8168 9.66772L61.9388 6.10926C61.8875 6.01184 61.8031 5.93296 61.6989 5.88502C61.4375 5.7644 61.1198 5.86492 60.9891 6.10926L59.1111 9.66772L54.91 10.2384C54.7942 10.2538 54.6883 10.3049 54.6072 10.3822C54.5092 10.4764 54.4552 10.603 54.4571 10.7344C54.4589 10.8658 54.5165 10.991 54.6172 11.0827L57.6567 13.8525L56.9386 17.7636C56.9217 17.8545 56.9325 17.9481 56.9697 18.0336C57.0068 18.1192 57.0689 18.1933 57.1488 18.2476C57.2288 18.3018 57.3234 18.3341 57.4219 18.3406C57.5204 18.3472 57.619 18.3278 57.7063 18.2847L61.4639 16.4382L65.2215 18.2847C65.3241 18.3357 65.4433 18.3528 65.5574 18.3342C65.8453 18.2878 66.0389 18.0326 65.9893 17.7636L65.2712 13.8525L68.3107 11.0827C68.3934 11.007 68.448 10.908 68.4646 10.7997C68.5092 10.5291 68.3074 10.2786 68.0178 10.2384Z" fill="#0F0840"/>
<path d="M87.8694 10.2384L83.6683 9.66772L81.7904 6.10926C81.7391 6.01184 81.6547 5.93296 81.5504 5.88502C81.289 5.7644 80.9713 5.86492 80.8406 6.10926L78.9626 9.66772L74.7616 10.2384C74.6458 10.2538 74.5399 10.3049 74.4588 10.3822C74.3608 10.4764 74.3068 10.603 74.3086 10.7344C74.3105 10.8658 74.3681 10.991 74.4687 11.0827L77.5082 13.8525L76.7901 17.7636C76.7733 17.8545 76.7841 17.9481 76.8212 18.0336C76.8584 18.1192 76.9205 18.1933 77.0004 18.2476C77.0803 18.3018 77.1749 18.3341 77.2735 18.3406C77.372 18.3472 77.4705 18.3278 77.5579 18.2847L81.3155 16.4382L85.0731 18.2847C85.1757 18.3357 85.2948 18.3528 85.409 18.3342C85.6969 18.2878 85.8905 18.0326 85.8408 17.7636L85.1227 13.8525L88.1622 11.0827C88.245 11.007 88.2996 10.908 88.3161 10.7997C88.3608 10.5291 88.1589 10.2786 87.8694 10.2384Z" fill="#0F0840"/>
<path d="M107.723 10.2384L103.522 9.66772L101.644 6.10926C101.593 6.01184 101.508 5.93296 101.404 5.88502C101.143 5.7644 100.825 5.86492 100.694 6.10926L98.8162 9.66772L94.6151 10.2384C94.4993 10.2538 94.3934 10.3049 94.3123 10.3822C94.2143 10.4764 94.1603 10.603 94.1622 10.7344C94.164 10.8658 94.2216 10.991 94.3222 11.0827L97.3618 13.8525L96.6437 17.7636C96.6268 17.8545 96.6376 17.9481 96.6748 18.0336C96.7119 18.1192 96.774 18.1933 96.8539 18.2476C96.9338 18.3018 97.0284 18.3341 97.127 18.3406C97.2255 18.3472 97.324 18.3278 97.4114 18.2847L101.169 16.4382L104.927 18.2847C105.029 18.3357 105.148 18.3528 105.262 18.3342C105.55 18.2878 105.744 18.0326 105.694 17.7636L104.976 13.8525L108.016 11.0827C108.098 11.007 108.153 10.908 108.17 10.7997C108.214 10.5291 108.012 10.2786 107.723 10.2384Z" fill="#0F0840"/>
<path d="M127.576 10.2384L123.375 9.66772L121.497 6.10926C121.446 6.01184 121.362 5.93296 121.257 5.88502C120.996 5.7644 120.678 5.86492 120.548 6.10926L118.67 9.66772L114.469 10.2384C114.353 10.2538 114.247 10.3049 114.166 10.3822C114.068 10.4764 114.014 10.603 114.016 10.7344C114.018 10.8658 114.075 10.991 114.176 11.0827L117.215 13.8525L116.497 17.7636C116.48 17.8545 116.491 17.9481 116.528 18.0336C116.565 18.1192 116.627 18.1933 116.707 18.2476C116.787 18.3018 116.882 18.3341 116.98 18.3406C117.079 18.3472 117.178 18.3278 117.265 18.2847L121.023 16.4382L124.78 18.2847C124.883 18.3357 125.002 18.3528 125.116 18.3342C125.404 18.2878 125.598 18.0326 125.548 17.7636L124.83 13.8525L127.869 11.0827C127.952 11.007 128.007 10.908 128.023 10.7997C128.068 10.5291 127.866 10.2786 127.576 10.2384Z" fill="#0F0840"/>
<path d="M9.32586 15.8217V14.5167H8.03586V7.16672H6.13086L1.01586 14.5167V15.8217H6.62586V18.0117H8.03586V15.8217H9.32586ZM2.60586 14.5167L6.62586 8.72672V14.5167H2.60586ZM11.7897 18.1917C12.3597 18.1917 12.8547 17.7117 12.8547 17.1417C12.8547 16.5567 12.3597 16.0767 11.7897 16.0767C11.2047 16.0767 10.7097 16.5567 10.7097 17.1417C10.7097 17.7117 11.2047 18.1917 11.7897 18.1917ZM20.5197 14.5767C21.6297 13.0617 22.0197 12.1467 22.0197 10.8717C22.0197 8.66672 20.2797 6.97172 18.0297 6.97172C15.7947 6.97172 14.0847 8.60672 14.0847 10.8567C14.0847 13.0167 15.5997 14.6367 17.8497 14.6367C18.2247 14.6367 18.6147 14.5617 18.9897 14.4117L16.2747 18.0117H17.9847L20.5197 14.5767ZM20.5197 10.8567C20.5197 12.3417 19.4997 13.3917 18.0297 13.3917C16.5897 13.3917 15.5697 12.3417 15.5697 10.8567C15.5697 9.37172 16.5897 8.29172 18.0297 8.29172C19.4997 8.29172 20.5197 9.37172 20.5197 10.8567Z" fill="#0F0840"/>
</svg>
