<svg width="140" height="38" viewBox="0 0 140 38" fill="none" xmlns="http://www.w3.org/2000/svg">
<path d="M46.472 22.214V19.328H50.71C51.2647 19.328 51.7673 19.2153 52.218 18.99C52.6687 18.7647 53.024 18.444 53.284 18.028C53.544 17.5947 53.674 17.0747 53.674 16.468C53.674 15.8787 53.544 15.3673 53.284 14.934C53.024 14.5007 52.6687 14.1713 52.218 13.946C51.7673 13.7207 51.2647 13.608 50.71 13.608H46.472V10.722H51.074C52.2353 10.722 53.2753 10.956 54.194 11.424C55.13 11.892 55.8667 12.5593 56.404 13.426C56.9413 14.2753 57.21 15.2893 57.21 16.468C57.21 17.6467 56.9413 18.6693 56.404 19.536C55.8667 20.3853 55.13 21.044 54.194 21.512C53.2753 21.98 52.2353 22.214 51.074 22.214H46.472ZM43.872 29V10.722H47.408V29H43.872ZM64.1975 29.26C63.0535 29.26 62.0222 28.974 61.1035 28.402C60.1848 27.83 59.4655 27.05 58.9455 26.062C58.4255 25.074 58.1655 23.9647 58.1655 22.734C58.1655 21.486 58.4255 20.368 58.9455 19.38C59.4655 18.392 60.1848 17.612 61.1035 17.04C62.0222 16.468 63.0535 16.182 64.1975 16.182C65.0988 16.182 65.9048 16.364 66.6155 16.728C67.3262 17.092 67.8895 17.6033 68.3055 18.262C68.7388 18.9033 68.9728 19.6313 69.0075 20.446V24.97C68.9728 25.802 68.7388 26.5387 68.3055 27.18C67.8895 27.8213 67.3262 28.3327 66.6155 28.714C65.9048 29.078 65.0988 29.26 64.1975 29.26ZM64.8215 26.114C65.7748 26.114 66.5462 25.802 67.1355 25.178C67.7248 24.5367 68.0195 23.7133 68.0195 22.708C68.0195 22.0493 67.8808 21.4687 67.6035 20.966C67.3435 20.446 66.9708 20.0473 66.4855 19.77C66.0175 19.4753 65.4628 19.328 64.8215 19.328C64.1975 19.328 63.6428 19.4753 63.1575 19.77C62.6895 20.0473 62.3168 20.446 62.0395 20.966C61.7795 21.4687 61.6495 22.0493 61.6495 22.708C61.6495 23.384 61.7795 23.982 62.0395 24.502C62.3168 25.0047 62.6895 25.4033 63.1575 25.698C63.6428 25.9753 64.1975 26.114 64.8215 26.114ZM67.8375 29V25.62L68.3835 22.552L67.8375 19.536V16.442H71.2175V29H67.8375ZM78.1827 29.104L72.9307 16.442H76.6227L80.1067 26.114H78.8587L82.4727 16.442H86.1907L80.6007 29.078L78.1827 29.104ZM74.6987 34.252L78.5207 26.166L80.6007 29.078L78.3127 34.252H74.6987ZM89.5591 29V11.216H92.9651V29H89.5591ZM86.6211 19.432V16.442H95.9031V19.432H86.6211ZM97.8185 29V16.442H101.251V29H97.8185ZM99.5345 14.414C98.9799 14.414 98.5205 14.232 98.1565 13.868C97.7925 13.4867 97.6105 13.0187 97.6105 12.464C97.6105 11.9267 97.7925 11.4673 98.1565 11.086C98.5205 10.7047 98.9799 10.514 99.5345 10.514C100.107 10.514 100.566 10.7047 100.913 11.086C101.277 11.4673 101.459 11.9267 101.459 12.464C101.459 13.0187 101.277 13.4867 100.913 13.868C100.566 14.232 100.107 14.414 99.5345 14.414ZM104.268 29V16.442H107.674V29H104.268ZM112.458 29V21.59C112.458 20.862 112.224 20.2987 111.756 19.9C111.305 19.484 110.742 19.276 110.066 19.276C109.615 19.276 109.208 19.3713 108.844 19.562C108.48 19.7353 108.194 19.9953 107.986 20.342C107.778 20.6887 107.674 21.1047 107.674 21.59L106.348 20.94C106.348 19.9693 106.556 19.1287 106.972 18.418C107.405 17.7073 107.986 17.1613 108.714 16.78C109.442 16.3813 110.265 16.182 111.184 16.182C112.05 16.182 112.839 16.3813 113.55 16.78C114.26 17.1613 114.824 17.7073 115.24 18.418C115.656 19.1113 115.864 19.952 115.864 20.94V29H112.458ZM120.648 29V21.59C120.648 20.862 120.414 20.2987 119.946 19.9C119.495 19.484 118.932 19.276 118.256 19.276C117.822 19.276 117.415 19.3713 117.034 19.562C116.67 19.7353 116.384 19.9953 116.176 20.342C115.968 20.6887 115.864 21.1047 115.864 21.59L113.914 21.122C113.983 20.1167 114.252 19.25 114.72 18.522C115.188 17.7767 115.803 17.2047 116.566 16.806C117.328 16.39 118.178 16.182 119.114 16.182C120.05 16.182 120.89 16.3813 121.636 16.78C122.381 17.1613 122.97 17.716 123.404 18.444C123.837 19.172 124.054 20.0387 124.054 21.044V29H120.648ZM132.821 29.26C131.503 29.26 130.333 28.9827 129.311 28.428C128.288 27.856 127.473 27.076 126.867 26.088C126.277 25.1 125.983 23.9733 125.983 22.708C125.983 21.46 126.269 20.3507 126.841 19.38C127.43 18.392 128.227 17.612 129.233 17.04C130.238 16.4507 131.356 16.156 132.587 16.156C133.8 16.156 134.866 16.4333 135.785 16.988C136.721 17.5253 137.449 18.2707 137.969 19.224C138.506 20.16 138.775 21.226 138.775 22.422C138.775 22.6473 138.757 22.8813 138.723 23.124C138.705 23.3493 138.662 23.6093 138.593 23.904L128.037 23.93V21.382L137.007 21.356L135.629 22.422C135.594 21.6767 135.455 21.0527 135.213 20.55C134.987 20.0473 134.649 19.666 134.199 19.406C133.765 19.1287 133.228 18.99 132.587 18.99C131.911 18.99 131.321 19.146 130.819 19.458C130.316 19.7527 129.926 20.1773 129.649 20.732C129.389 21.2693 129.259 21.9107 129.259 22.656C129.259 23.4187 129.397 24.086 129.675 24.658C129.969 25.2127 130.385 25.646 130.923 25.958C131.46 26.2527 132.084 26.4 132.795 26.4C133.436 26.4 134.017 26.296 134.537 26.088C135.057 25.8627 135.507 25.5333 135.889 25.1L137.891 27.102C137.284 27.8127 136.539 28.35 135.655 28.714C134.788 29.078 133.843 29.26 132.821 29.26Z" fill="#0F0840"/>
<path d="M17.5086 13.7613C18.0185 13.2565 18.334 12.5601 18.334 11.7905C18.334 10.2494 17.0687 9 15.508 9C14.5213 9 13.6539 9.50019 13.1484 10.2569C13.0141 10.3897 1.76452 24.0813 1.65936 24.2387C1.14947 24.7435 0.833984 25.4402 0.833984 26.2093C0.833984 27.7506 2.09927 29 3.65994 29C4.64662 29 5.5141 28.5 6.01959 27.7431C6.15387 27.6103 17.4035 13.9185 17.5086 13.7613Z" fill="#6247E8"/>
<path d="M24.1496 20.3695C24.6751 19.8707 25 19.1823 25 18.4216C25 16.9002 23.6997 15.6667 22.0959 15.6667C21.0815 15.6667 20.1896 16.1609 19.6701 16.9085C19.531 17.0407 13.4591 24.1408 13.3504 24.2972C12.8249 24.7959 12.5 25.4844 12.5 26.2449C12.5 27.7665 13.8003 29 15.4041 29C16.4185 29 17.3104 28.5058 17.8297 27.7581C17.9687 27.6262 24.0409 20.5259 24.1496 20.3695Z" fill="#6247E8"/>
<path d="M30.8333 11.9163C30.8333 13.5273 29.5274 14.833 27.9167 14.833C26.3057 14.833 25 13.5273 25 11.9163C25 10.3056 26.3057 8.99967 27.9167 8.99967C29.5274 8.99967 30.8333 10.3056 30.8333 11.9163Z" fill="#FFB459"/>
<path d="M5 12.333C5 13.7138 3.88065 14.833 2.5 14.833C1.11935 14.833 0 13.7138 0 12.333C0 10.9524 1.11935 9.83301 2.5 9.83301C3.88065 9.83301 5 10.9524 5 12.333Z" fill="#6247E8"/>
</svg>
